<?xml version="1.0" encoding="utf-8"?>
<!-- Generator: Adobe Illustrator 23.1.0, SVG Export Plug-In . SVG Version: 6.00 Build 0)  -->
<svg version="1.1" id="Layer_1" xmlns="http://www.w3.org/2000/svg" xmlns:xlink="http://www.w3.org/1999/xlink" x="0px" y="0px"
	 viewBox="0 0 1796 1796" style="enable-background:new 0 0 1796 1796;" xml:space="preserve">
<style type="text/css">
	.st0{fill:none;}
	.st1{opacity:0.53;fill:#CCCCCC;stroke:#8C6239;stroke-width:5;stroke-miterlimit:10;}
	.st2{opacity:0.53;fill:#CCCCCC;}
	.st3{opacity:0.53;fill:#E6E6E6;stroke:#8C6239;stroke-width:5;stroke-miterlimit:10;}
	.st4{opacity:0.53;fill:url(#SVGID_1_);}
	.st5{fill:#713D1B;}
	.st6{fill:#8C6239;}
	.st7{fill:#333333;}
</style>
<linearGradient id="SVGID_1_" gradientUnits="userSpaceOnUse" x1="0" y1="898" x2="1796" y2="898">
	<stop  offset="0" style="stop-color:#BD5183"/>
	<stop  offset="0.4497" style="stop-color:#8E83CC"/>
	<stop  offset="1" style="stop-color:#8EDBCC"/>
</linearGradient>
<path class="st4" d="M898,1796c-121.17,0-238.79-23.76-349.58-70.62c-106.95-45.24-202.97-109.97-285.4-192.4
	c-82.43-82.43-147.16-178.45-192.4-285.4C23.76,1136.79,0,1019.17,0,898s23.76-238.79,70.62-349.58
	c45.24-106.95,109.97-202.97,192.4-285.4s178.45-147.16,285.4-192.4C659.21,23.76,776.83,0,898,0s238.79,23.76,349.58,70.62
	c106.95,45.24,202.97,109.97,285.4,192.4s147.16,178.45,192.4,285.4C1772.24,659.21,1796,776.83,1796,898
	s-23.76,238.79-70.62,349.58c-45.24,106.95-109.97,202.97-192.4,285.4c-82.43,82.43-178.45,147.16-285.4,192.4
	C1136.79,1772.24,1019.17,1796,898,1796z M898,250c-357.31,0-648,290.69-648,648s290.69,648,648,648s648-290.69,648-648
	S1255.31,250,898,250z"/>
</svg>
