<?xml version="1.0" encoding="utf-8"?>
<!-- Generator: Adobe Illustrator 23.1.0, SVG Export Plug-In . SVG Version: 6.00 Build 0)  -->
<svg version="1.1" id="Layer_1" xmlns="http://www.w3.org/2000/svg" xmlns:xlink="http://www.w3.org/1999/xlink" x="0px" y="0px"
	 viewBox="0 0 152 152" style="enable-background:new 0 0 152 152;" xml:space="preserve">
<style type="text/css">
	.st0{opacity:0.53;fill:#CCCCCC;stroke:#8C6239;stroke-width:5;stroke-miterlimit:10;}
	.st1{opacity:0.53;fill:#CCCCCC;}
	.st2{opacity:0.53;fill:#E6E6E6;stroke:#8C6239;stroke-width:5;stroke-miterlimit:10;}
	.st3{opacity:0.53;clip-path:url(#SVGID_4_);fill:url(#SVGID_5_);}
	.st4{fill:#713D1B;}
	.st5{fill:#8C6239;}
	.st6{fill:#333333;}
</style>
<g>
	<path class="st5" d="M71.62,29.38c0.74,0.34,1.12,0.94,1.3,1.73c0.21,0.94,0.49,1.86,0.76,2.82c0.92-0.27,1.78-0.54,2.66-0.78
		c1.48-0.4,2.53,0.64,2.16,2.13c-0.11,0.44-0.25,0.87-0.38,1.31c-0.13,0.43-0.26,0.86-0.42,1.35c1.07,0.3,2.08,0.59,3.1,0.85
		c0.71,0.18,1.22,0.54,1.38,1.28c0.16,0.72-0.07,1.31-0.65,1.77c-1.4,1.1-2.82,2.2-4.2,3.33c-0.26,0.21-0.52,0.54-0.57,0.85
		c-0.09,0.53,0.1,0.94,0.7,1.19c2.78,1.2,5.27,2.87,7.46,4.95c3.96,3.75,6.61,8.26,7.82,13.58c0.17,0.76,0.47,1.04,1.26,1.19
		c5.53,1.07,8.63,7.27,5.79,12.45c1.68,1.25,2.71,2.93,2.98,5.11c1.08,0.14,2.16,0.21,3.22,0.42c3.9,0.78,6.97,2.85,9.19,6.16
		c1.2,1.8,1.49,3.8,1.19,5.92c-0.05,0.34,0.04,0.79,0.24,1.06c1.62,2.26,2.44,4.86,3.27,7.46c0.43,1.34,0.06,2.63-0.56,3.86
		c-0.17,0.34-0.26,0.79-0.21,1.17c0.24,1.86,0.59,3.71,0.79,5.58c0.27,2.44-0.7,4.34-2.79,5.6c-2.13,1.27-4.29,1.19-6.33-0.23
		c-1.1-0.76-2.1-1.64-3.18-2.43c-0.26-0.19-0.67-0.34-0.97-0.29c-1.84,0.33-3.43-0.15-4.82-1.34c-0.44-0.38-0.78-0.44-1.36-0.2
		c-2.12,0.91-4.21,0.69-6.19-0.45c-0.54-0.31-1.03-0.45-1.58-0.07c-0.12,0.08-0.28,0.13-0.43,0.14c-3.34,0.3-6.68,0.68-9.99-0.29
		c-0.29-0.09-0.7,0-0.98,0.15c-2.48,1.36-4.94,1.46-7.44,0.03c-0.22-0.13-0.74,0.02-0.99,0.21c-1.14,0.86-2.25,1.77-3.76,1.88
		c-0.27,0.02-0.57,0.11-0.81,0.03c-1.14-0.39-1.95,0.14-2.76,0.85c-0.7,0.62-1.45,1.2-2.22,1.73c-2.07,1.43-4.25,1.57-6.41,0.27
		c-2.15-1.3-3.1-3.26-2.77-5.78c0.23-1.8,0.55-3.59,0.78-5.4c0.05-0.38-0.04-0.83-0.21-1.17c-0.71-1.36-0.98-2.77-0.48-4.22
		c1.06-3.06,2.06-6.17,4.41-8.57c0.15-0.15,0.22-0.42,0.25-0.64c0.1-0.99,0.16-1.98,0.25-3.12c-0.26,0-0.6,0-0.94,0
		c-4.88-0.01-9.77,0.09-14.65-0.07c-5.76-0.19-9.8-5.3-8.82-10.96c0.1-0.57-0.18-0.75-0.49-1.03c-1.6-1.47-2.63-3.18-2.11-5.47
		c0.34-1.51,1.2-2.66,2.59-3.32c1.73-0.83,2.96-2.06,3.62-3.88c0.14-0.39,0.48-0.87,0.84-1c0.72-0.26,0.81-0.81,0.95-1.4
		c0.79-3.44,2.24-6.59,4.27-9.46c0.56-0.79,1.28-0.97,1.94-0.51c0.65,0.45,0.73,1.18,0.21,2c-0.07,0.1-0.13,0.2-0.2,0.3
		c-1.82,2.62-3.05,5.5-3.76,8.61c-0.02,0.09-0.02,0.18-0.03,0.36c2.52,0.72,4.41,2.27,5.66,4.7c1.38-0.72,2.33-1.75,2.9-3.15
		c0.63-1.55,1.28-1.93,2.94-1.77c3.25,0.32,5.58,2,7.14,4.89c1.41-0.68,2.33-1.74,2.9-3.13c0.64-1.55,1.27-1.93,2.94-1.76
		c3.01,0.31,5.3,1.76,6.83,4.38c0.09,0.15,0.19,0.3,0.31,0.5c1.41-0.67,2.33-1.75,2.91-3.13c0.64-1.54,1.27-1.93,2.94-1.75
		c2.98,0.31,5.25,1.74,6.78,4.32c0.11,0.18,0.22,0.35,0.35,0.57c1.78-0.85,2.69-2.33,3.26-4.07c0.06-0.19,0-0.42-0.05-0.63
		c-1.84-8.03-6.48-13.81-13.93-17.34c-0.05-0.02-0.12-0.02-0.11-0.02c-4.04,4.34-9.19,5.98-14.86,6.17
		c-3.7,0.12-5.44-1.58-5.88-5.24c-0.01-0.11-0.05-0.22-0.14-0.57c-1.42,0.95-2.75,1.82-4.06,2.71c-0.35,0.24-0.65,0.55-0.99,0.79
		c-0.67,0.49-1.4,0.43-1.87-0.13c-0.48-0.57-0.46-1.32,0.2-1.85c1.06-0.86,2.14-1.69,3.28-2.44c0.91-0.6,1.86-1.16,2.86-1.57
		c0.72-0.3,0.97-0.74,1.12-1.45c0.66-3.17,1.75-6.19,3.69-8.82c1.47-2,3.4-3.05,5.99-2.57c0.27,0.05,0.69-0.21,0.9-0.45
		c1.35-1.58,2.67-3.19,4-4.79C70.89,29.38,71.25,29.38,71.62,29.38z M102.74,87.29c-0.06,0.61-0.12,1.18-0.17,1.76
		c-0.33,4.02-1.47,7.85-2.71,11.65c-0.25,0.78-0.97,1.12-1.65,0.89c-0.69-0.23-1.03-0.91-0.82-1.69c0.16-0.61,0.35-1.22,0.55-1.83
		c1.35-4.11,2.17-8.32,2.21-12.66c0.02-1.98-0.85-3.43-2.65-4.29c-0.85-0.4-1.7-0.8-2.56-1.17c-2.8-1.22-5.72-1.69-8.78-1.47
		c-3.26,0.24-6.17,1.47-8.97,3.01c-1.44,0.8-2.12,2.2-1.98,3.83c0.22,2.68,0.25,5.44,0.93,8.01c1.7,6.37,3.7,12.67,5.62,18.98
		c0.44,1.46,1.54,2.14,3.22,2.16c1.79,0.03,3.58,0.03,5.37,0c1.84-0.03,2.81-0.8,3.37-2.59c0.63-2.02,1.23-4.05,1.87-6.08
		c0.3-0.96,0.89-1.34,1.66-1.12c0.8,0.22,1.12,0.92,0.82,1.89c-0.8,2.63-1.62,5.26-2.44,7.92c1.68,1.08,3.85,0.84,5.28-0.71
		c0.57-0.62,1.07-1.31,1.6-1.98c3.33-4.24,6.67-8.49,10-12.73c1.49-1.89,1.82-3.95,0.73-6.12
		C111.51,89.54,106.71,86.94,102.74,87.29z M79.67,114.53c-1.38-4.51-2.72-9.01-4.12-13.48c-1.41-4.5-2.77-9.02-2.93-13.84
		c-3.73,0.05-6.78,1.27-9.21,3.93c-0.47,0.51-0.9,1.08-1.23,1.68c-1.07,1.96-0.94,3.9,0.27,5.76c0.23,0.35,0.52,0.67,0.77,1.01
		c0.48,0.65,0.49,1.3-0.11,1.88c-0.54,0.52-1.21,0.49-1.84-0.18c-0.55-0.58-1-1.25-1.6-2.01c-0.51,0.91-1.02,1.7-1.4,2.55
		c-0.52,1.16-0.94,2.36-1.38,3.55c-0.6,1.61-0.31,2.63,1.06,3.66c2.76,2.08,5.58,4.09,8.29,6.23c1.95,1.54,3.47,1.22,5.3-0.83
		c-2.06-2.62-4.12-5.24-6.18-7.87c-0.22-0.29-0.47-0.57-0.64-0.88c-0.35-0.62-0.21-1.2,0.33-1.62c0.54-0.43,1.13-0.41,1.66,0.04
		c0.23,0.19,0.4,0.45,0.59,0.69c2.25,2.86,4.49,5.73,6.74,8.58C75.54,115.28,77.83,115.7,79.67,114.53z M59.85,80.54
		c-1.88,1.7-4.08,2.28-6.5,2.24c-2.4-0.04-4.61-0.61-6.46-2.24c-2.87,2.52-6.19,2.54-9.64,1.87c-0.04,0.21-0.08,0.35-0.1,0.5
		c-0.44,3.72,2.77,7.24,6.71,7.27c5.43,0.04,10.86,0.02,16.29-0.01c0.35,0,0.79-0.25,1.04-0.52c2.03-2.29,4.49-3.88,7.48-4.57
		c1.26-0.29,2.56-0.41,3.75-0.6c0.39-1.12,0.78-2.19,1.18-3.33c-0.22-0.18-0.49-0.4-0.75-0.61C69.61,83.6,63.09,83.45,59.85,80.54z
		 M58.15,49.51c0,0.18,0,0.36,0,0.55c0.07,2.18,0.68,3,2.85,3.06c4.34,0.12,8.31-1.2,11.8-3.76c1.62-1.19,1.84-2.71,0.75-4.6
		c-1.68-2.92-4.01-5.25-6.91-6.95c-2.12-1.24-3.7-0.84-5.08,1.21C59.43,42.18,58.4,45.72,58.15,49.51z M40.43,80.41
		c0.02-0.08,0.05-0.17,0.07-0.25c0.21,0,0.43,0.01,0.64,0c3.11-0.15,5.11-1.94,5.18-4.64c0.08-3.05-2.17-5.78-5.02-6.07
		c-0.27-0.03-0.73,0.09-0.82,0.28c-0.98,2.15-2.61,3.59-4.69,4.62c-1.07,0.53-1.55,1.8-1.02,2.79c0.41,0.77,1.01,1.62,1.75,1.99
		C37.73,79.75,39.12,80.01,40.43,80.41z M114.92,100.25c-3.96,5.04-7.82,9.96-11.68,14.88c1.32,1.32,2.59,1.51,3.93,0.52
		c3.05-2.24,6.08-4.51,9.1-6.8c1.05-0.79,1.36-1.91,0.92-3.16c-0.45-1.28-0.95-2.55-1.45-3.81
		C115.54,101.36,115.24,100.87,114.92,100.25z M53.47,80.15c0.3,0,0.61,0.02,0.91,0c2.53-0.22,4.25-1.49,4.77-3.52
		c0.82-3.19-1.49-6.66-4.75-7.18c-0.61-0.1-0.91,0.08-1.17,0.65c-0.71,1.56-1.83,2.8-3.33,3.6c-0.72,0.39-1.07,0.76-0.99,1.64
		c0.07,0.73-0.07,1.52-0.3,2.23c-0.22,0.67-0.01,1,0.48,1.36C50.4,79.9,51.91,80.11,53.47,80.15z M66.17,80.17
		c2.71,0.03,4.58-0.83,5.49-2.38c1.91-3.26-0.77-8.2-4.56-8.34c-0.25-0.01-0.63,0.21-0.74,0.43c-0.87,1.81-2.18,3.17-3.94,4.13
		c-0.24,0.13-0.42,0.52-0.47,0.82c-0.16,0.92-0.14,1.88-0.38,2.77c-0.17,0.63-0.01,0.95,0.44,1.29
		C63.33,79.9,64.88,80.11,66.17,80.17z M85.16,75.95c0.48-3.11-2-6.3-5.01-6.5c-0.27-0.02-0.71,0.2-0.82,0.43
		c-0.87,1.81-2.18,3.17-3.95,4.13c-0.24,0.13-0.42,0.52-0.47,0.81c-0.15,0.92-0.17,1.86-0.36,2.77c-0.12,0.54-0.12,0.89,0.35,1.24
		c0.44,0.33,0.78,0.48,1.36,0.17C79.05,77.54,81.93,76.28,85.16,75.95z M97.38,78.18c1.15-1.86,1.12-3.7,0.24-5.51
		c-0.93-1.89-2.5-3-4.61-3.23c-0.23-0.02-0.62,0.3-0.75,0.55c-0.78,1.56-1.84,2.88-3.39,3.67c-0.97,0.49-1.23,1.09-0.87,2.12
		C91.24,75.86,94.34,76.66,97.38,78.18z M116.66,111.86c-2.49,1.86-4.79,3.58-7.17,5.36c1.07,0.81,1.99,1.6,3,2.25
		c1.97,1.25,4.76-0.12,4.77-2.42C117.27,115.38,116.89,113.72,116.66,111.86z M64.48,117.21c-2.42-1.81-4.71-3.51-7.14-5.33
		c-0.24,1.74-0.51,3.26-0.65,4.79c-0.11,1.26,0.51,2.23,1.61,2.84c1.09,0.61,2.23,0.62,3.27-0.08
		C62.54,118.76,63.45,118,64.48,117.21z M75.47,36.36c-0.07-0.06-0.14-0.12-0.21-0.18c-0.92,0.36-1.86,0.68-2.76,1.1
		c-0.96,0.45-1,0.86-0.28,1.58c0.19,0.19,0.38,0.39,0.57,0.58c0.65,0.66,1.08,0.64,1.49-0.2C74.74,38.31,75.08,37.32,75.47,36.36z
		 M75.12,42.25c0.16,0.24,0.35,0.52,0.6,0.89c0.98-0.74,1.88-1.41,2.93-2.2c-0.63-0.15-1.05-0.29-1.48-0.35
		c-0.23-0.03-0.54,0.01-0.69,0.15C76.01,41.2,75.6,41.71,75.12,42.25z M69.48,36.48c0.84-0.99,2.4-1.64,1.07-3.33
		c-0.66,0.88-1.31,1.75-2,2.67C68.93,36.09,69.19,36.28,69.48,36.48z"/>
	<path class="st5" d="M64.82,45.5c0.01,0.7-0.59,1.33-1.3,1.35c-0.71,0.02-1.34-0.58-1.35-1.3c-0.02-0.71,0.58-1.33,1.3-1.35
		C64.17,44.19,64.81,44.8,64.82,45.5z"/>
	<path class="st5" d="M62.67,51.53c-0.71,0.01-1.33-0.59-1.34-1.31c-0.01-0.71,0.59-1.34,1.3-1.35c0.71-0.01,1.33,0.59,1.34,1.3
		C63.98,50.9,63.38,51.52,62.67,51.53z"/>
	<path class="st5" d="M69.45,44.74c-0.02,0.75-0.6,1.3-1.36,1.27c-0.72-0.03-1.24-0.57-1.24-1.29c0-0.75,0.57-1.33,1.31-1.32
		C68.89,43.41,69.46,44,69.45,44.74z"/>
	<path class="st5" d="M67.31,48.04c0.71-0.01,1.34,0.6,1.34,1.31c0.01,0.71-0.61,1.33-1.32,1.33c-0.71,0.01-1.33-0.6-1.34-1.31
		C65.99,48.66,66.6,48.05,67.31,48.04z"/>
	<path class="st5" d="M65.62,40.88c0,0.75-0.58,1.31-1.33,1.3c-0.72-0.01-1.26-0.54-1.28-1.26c-0.02-0.76,0.53-1.34,1.28-1.35
		C65.03,39.56,65.62,40.14,65.62,40.88z"/>
</g>
</svg>
