<?xml version="1.0" encoding="utf-8"?>
<!-- Generator: Adobe Illustrator 23.1.0, SVG Export Plug-In . SVG Version: 6.00 Build 0)  -->
<svg version="1.1" id="Layer_1" xmlns="http://www.w3.org/2000/svg" xmlns:xlink="http://www.w3.org/1999/xlink" x="0px" y="0px"
	 viewBox="0 0 152 152" style="enable-background:new 0 0 152 152;" xml:space="preserve">
<style type="text/css">
	.st0{opacity:0.53;fill:#CCCCCC;stroke:#8C6239;stroke-width:5;stroke-miterlimit:10;}
	.st1{opacity:0.53;fill:#CCCCCC;}
	.st2{opacity:0.53;fill:#E6E6E6;stroke:#8C6239;stroke-width:5;stroke-miterlimit:10;}
	.st3{opacity:0.53;clip-path:url(#SVGID_4_);fill:url(#SVGID_5_);}
	.st4{fill:#713D1B;}
	.st5{fill:#8C6239;}
	.st6{fill:#333333;}
</style>
<g>
	<path class="st5" d="M77.74,37.33c1.84,0.25,3.69,0.44,5.52,0.78c1.57,0.3,3.12,0.74,4.66,1.18c1.11,0.32,1.55,1.04,1.27,1.9
		c-0.29,0.89-1.02,1.2-2.12,0.85c-4.5-1.42-9.08-2.01-13.79-1.63c-8.06,0.65-15.09,3.69-21.14,9.06c-0.54,0.48-0.31,0.9-0.2,1.37
		c1.3,5.6,0.63,10.87-2.59,15.71c-1.12,1.68-2.57,3.05-4.35,4.04c-0.51,0.28-0.74,0.59-0.72,1.2c0.1,4.12,0.15,8.24,0.24,12.36
		c0.02,1.11-0.44,1.82-1.33,1.89c-0.89,0.07-1.53-0.55-1.55-1.68c-0.1-4.73-0.19-9.47-0.2-14.2c0-0.49,0.44-1.24,0.87-1.43
		c4.01-1.8,6.02-5.11,6.92-9.19c1.02-4.64,0.4-9.05-2.37-13c-3.78-5.4-10.12-5.57-14.22-0.44c-4.29,5.35-4.17,14.64,0.37,19.73
		c0.98,1.1,2.31,1.92,3.58,2.69c0.81,0.5,1.23,1.01,1.22,1.97c-0.04,5.83,0.19,11.67-0.6,17.47c-0.51,3.76-1.31,7.48-1.75,11.25
		c-0.26,2.22-0.23,4.51-0.05,6.75c0.19,2.26,2.29,3.83,4.46,3.66c2.23-0.17,3.83-1.93,3.96-4.23c0.23-3.99-0.25-7.9-1.11-11.78
		c-0.12-0.53-0.2-1.08-0.27-1.62c-0.1-0.9,0.39-1.58,1.18-1.7c0.83-0.13,1.48,0.34,1.67,1.22c0.06,0.28,0.14,0.57,0.14,0.86
		c0.04,2.29,1.16,4.08,2.57,5.77c8.2,9.89,18.71,14.58,31.46,13.36c12.09-1.16,21.26-7.32,27.44-17.82
		c0.45-0.76,0.54-1.77,0.69-2.68c1.05-6.68,1.03-13.41,0.94-20.15c0-0.34-0.33-0.82-0.64-0.98c-4.39-2.37-6.62-6.07-6.79-11.01
		c-0.09-2.48,0.01-4.96-0.04-7.44c-0.01-0.42-0.22-0.98-0.53-1.23c-2-1.61-4.05-3.15-6.09-4.71c-0.18-0.14-0.38-0.23-0.58-0.35
		c-0.94-0.58-1.23-1.4-0.76-2.17c0.45-0.73,1.32-0.91,2.19-0.33c1.59,1.04,3.13,2.13,4.69,3.22c0.32,0.22,0.6,0.48,1.01,0.81
		c0.04-0.32,0.09-0.55,0.09-0.78c0.01-0.97-0.04-1.94,0.02-2.9c0.12-2.03,1.67-3.51,3.63-3.54c1.99-0.03,3.53,1.37,3.74,3.41
		c0.04,0.35,0.03,0.71,0.03,1.06c0,3.54-0.01,7.09,0.02,10.63c0,0.33,0.31,0.66,0.47,0.99c0.17-0.33,0.48-0.66,0.49-0.99
		c0.04-3.87,0-7.73,0.04-11.6c0.02-1.77,1.37-3.23,3.05-3.47c1.93-0.27,3.63,0.71,4.18,2.47c0.17,0.54,0.2,1.14,0.21,1.71
		c0.02,3.42,0.01,6.83,0.01,10.25c0,0.23-0.06,0.48,0.01,0.67c0.13,0.33,0.35,0.63,0.53,0.95c0.16-0.31,0.44-0.62,0.45-0.93
		c0.03-3.64,0.01-7.28,0.03-10.92c0-0.54,0.01-1.11,0.16-1.62c0.51-1.79,2.21-2.83,4.11-2.58c1.74,0.23,3.1,1.77,3.1,3.64
		c0.02,5.44,0.01,10.89-0.01,16.33c0,0.7-0.11,1.42-0.27,2.1c-0.86,3.74-2.99,6.51-6.4,8.25c-0.57,0.29-0.8,0.59-0.78,1.24
		c0.19,5.44,0.17,10.89,0.58,16.31c0.28,3.77,1.28,7.49,1.68,11.25c0.28,2.64,0.35,5.36,0.08,7.99c-0.4,3.78-3.84,6.27-7.72,5.98
		c-3.52-0.26-6.37-3.34-6.44-7c-0.03-1.71-0.01-3.41-0.01-5.27c-0.24,0.21-0.4,0.32-0.53,0.47c-6.35,7.46-14.36,11.94-24.02,13.45
		c-1.33,0.21-2.67,0.31-4.01,0.46c-1.03,0-2.06,0-3.09,0c-0.31-0.05-0.63-0.13-0.94-0.15c-10.34-0.76-19.02-4.98-26.06-12.6
		c-0.18-0.19-0.38-0.36-0.76-0.72c0,1.73,0.06,3.2-0.01,4.67c-0.17,3.53-3.11,6.42-6.7,6.64c-3.5,0.22-6.98-2.3-7.34-5.76
		c-0.3-2.85-0.45-5.86,0.1-8.64c1.73-8.77,2.37-17.59,2.13-26.5c-0.01-0.3-0.26-0.73-0.51-0.87c-2.92-1.66-4.98-4.1-6.16-7.18
		c-0.73-1.9-1.08-3.94-1.6-5.92c0-1.29,0-2.58,0-3.87c0.07-0.27,0.15-0.55,0.19-0.83c0.54-3.62,1.89-6.86,4.39-9.57
		c3.51-3.8,8.51-4.92,12.88-2.87c2.59,1.21,4.49,3.17,5.94,5.6c0.17,0.29,0.36,0.58,0.55,0.89c0.2-0.16,0.33-0.25,0.45-0.35
		c5.27-4.5,11.31-7.38,18.12-8.61c1.7-0.31,3.42-0.46,5.14-0.68C75.42,37.33,76.58,37.33,77.74,37.33z M122.5,51.53
		c0-1.77,0-3.54,0-5.31c0-1.03,0.05-2.07-0.04-3.09c-0.03-0.29-0.49-0.53-0.76-0.8c-0.26,0.26-0.58,0.5-0.76,0.81
		c-0.11,0.19-0.03,0.5-0.03,0.76c0,3.61,0,7.22,0,10.82c0,1.51-0.56,2.71-1.96,3.39c-2.31,1.13-4.8-0.54-4.83-3.27
		c-0.04-3.67-0.01-7.34-0.01-11.02c0-0.32,0.05-0.7-0.09-0.94c-0.15-0.25-0.52-0.52-0.79-0.51c-0.26,0.01-0.59,0.31-0.74,0.57
		c-0.13,0.22-0.05,0.56-0.06,0.85c0,3.67,0.01,7.34-0.01,11.02c-0.01,2.11-1.41,3.59-3.34,3.62c-2,0.03-3.43-1.42-3.44-3.59
		c-0.02-3.74-0.01-7.47-0.01-11.21c0-0.58,0.05-1.27-0.79-1.29c-0.82-0.02-0.84,0.63-0.84,1.24c0,5.06-0.03,10.11,0.01,15.17
		c0.03,4.04,2.37,7.43,6.13,8.88c0.96,0.37,1.36,0.96,1.34,1.96c-0.03,2.25-0.03,4.51-0.01,6.76c0.06,6.1-0.36,12.17-1.53,18.16
		c-0.71,3.65-1.14,7.3-0.96,11.02c0.11,2.23,1.77,4.01,3.93,4.15c2.24,0.14,4.34-1.33,4.49-3.49c0.17-2.43,0.17-4.9-0.11-7.32
		c-0.43-3.77-1.42-7.48-1.68-11.25c-0.41-6-0.4-12.03-0.58-18.05c-0.03-1,0.39-1.58,1.35-1.94c3.84-1.45,6.08-4.74,6.1-8.85
		C122.51,56.36,122.5,53.94,122.5,51.53z"/>
	<path class="st5" d="M60.12,90.67c0.33-1.87,0.84-3.51,1.8-5c0.68-1.06,1.63-1.58,2.91-1.57c4.04,0.02,7.71,2.61,8.5,6.49
		c0.02,0.09,0.08,0.17,0.09,0.18c1.73,0,3.41,0,5.16,0c0.69-3.02,2.57-5.11,5.56-6.15c0.66-0.23,1.36-0.39,2.06-0.47
		c2.22-0.27,3.33,0.26,4.27,2.29c0.6,1.29,0.93,2.7,1.39,4.09c0.14-0.16,0.4-0.42,0.64-0.7c10.57-12.77,3.59-32-12.73-35.07
		c-1.24-0.23-1.84-0.91-1.62-1.82c0.2-0.84,0.94-1.25,1.98-1.06c4.43,0.8,8.38,2.63,11.78,5.59c10.87,9.46,11.37,25.93,1.11,36.04
		c-0.16,0.16-0.37,0.27-0.45,0.32c0.71,1.31,1.41,2.46,1.97,3.66c0.77,1.66,0.39,3.1-0.95,4.36c-2.56,2.4-5.49,3.2-8.94,2.19
		c-1.84,3.49-4.68,5.55-8.68,5.55c-3.96,0-6.8-2.02-8.63-5.49c-0.78,0.12-1.53,0.29-2.28,0.34c-3.03,0.2-5.42-1.08-7.35-3.33
		c-0.73-0.84-0.93-1.9-0.53-2.91c0.58-1.44,1.33-2.82,2.02-4.23c-1.11-1.39-2.48-2.86-3.58-4.5c-9.76-14.54-1.01-34.8,16.21-37.6
		c1.08-0.18,1.85,0.27,1.99,1.16c0.14,0.87-0.43,1.5-1.54,1.71c-8.96,1.68-15.69,8.19-17.42,17.18c-1.32,6.86,0.43,13.01,4.97,18.34
		C59.96,90.39,60.04,90.54,60.12,90.67z M75.99,93.55c-3.64,0-6.55,2.92-6.56,6.55c0,3.62,2.93,6.59,6.53,6.61
		c3.63,0.02,6.62-2.97,6.61-6.63C82.55,96.46,79.63,93.55,75.99,93.55z M69.47,93.17c1.29-0.95,1.38-1.18,0.87-2.57
		c-0.53-1.43-1.49-2.51-2.91-3.03c-2.99-1.08-3.2-0.87-4.01,2.02c-0.13,0.48-0.15,1.02-0.13,1.53c0.11,2.45,2.28,4.58,4.26,4.62
		c-0.77-1.44-1.53-2.85-2.27-4.27c-0.5-0.96-0.33-1.75,0.43-2.18c0.79-0.45,1.59-0.15,2.13,0.83
		C68.39,91.13,68.92,92.15,69.47,93.17z M82.52,93.19c0.54-1.01,1.06-1.97,1.58-2.93c0.59-1.08,1.33-1.43,2.15-1
		c0.83,0.43,0.98,1.25,0.41,2.33c-0.57,1.08-1.15,2.15-1.72,3.23c-0.17,0.31-0.31,0.64-0.53,1.07c4-1.04,5.56-5.24,3.31-8.45
		c-0.14-0.2-0.44-0.38-0.67-0.4c-2.18-0.18-4.61,1.42-5.37,3.51C81.17,91.94,81.24,92.19,82.52,93.19z M85.46,98.98
		c0,0.29,0.07,0.81-0.01,1.31c-0.14,0.88,0.34,1.12,1.06,1.22c2.07,0.28,3.8-0.4,5.2-1.91c0.19-0.2,0.31-0.69,0.2-0.92
		c-0.51-1.04-1.12-2.04-1.59-2.88C88.6,96.93,87.12,97.9,85.46,98.98z M66.55,98.77c-0.84-0.42-1.69-0.74-2.43-1.23
		c-0.77-0.5-1.43-1.16-2.33-1.91c-0.58,1.02-1.17,1.99-1.68,3.01c-0.11,0.22-0.06,0.65,0.09,0.86c1.13,1.58,3.89,2.49,5.71,1.89
		c0.26-0.09,0.58-0.41,0.61-0.66C66.6,100.07,66.55,99.39,66.55,98.77z"/>
	<path class="st5" d="M75.96,104.72c-2.38-0.03-4.38-1.9-4.55-4.27c-0.07-0.94,0.44-1.65,1.26-1.77c0.81-0.12,1.47,0.43,1.61,1.4
		c0.12,0.84,0.47,1.58,1.35,1.62c0.56,0.03,1.34-0.21,1.65-0.61c0.31-0.4,0.35-1.25,0.15-1.75c-0.17-0.42-0.83-0.77-1.34-0.9
		c-1.1-0.28-1.64-0.82-1.49-1.74c0.14-0.85,0.84-1.28,1.9-1.18c2.36,0.24,4.24,2.44,4.09,4.8C80.45,102.82,78.4,104.75,75.96,104.72
		z"/>
</g>
</svg>
