<?xml version="1.0" encoding="utf-8"?>
<!-- Generator: Adobe Illustrator 23.1.0, SVG Export Plug-In . SVG Version: 6.00 Build 0)  -->
<svg version="1.1" id="Layer_1" xmlns="http://www.w3.org/2000/svg" xmlns:xlink="http://www.w3.org/1999/xlink" x="0px" y="0px"
	 viewBox="0 0 152 152" style="enable-background:new 0 0 152 152;" xml:space="preserve">
<style type="text/css">
	.st0{opacity:0.53;fill:#CCCCCC;stroke:#8C6239;stroke-width:5;stroke-miterlimit:10;}
	.st1{opacity:0.53;fill:#CCCCCC;}
	.st2{opacity:0.53;fill:#E6E6E6;stroke:#8C6239;stroke-width:5;stroke-miterlimit:10;}
	.st3{opacity:0.53;clip-path:url(#SVGID_4_);fill:url(#SVGID_5_);}
	.st4{fill:#713D1B;}
	.st5{fill:#8C6239;}
	.st6{fill:#333333;}
</style>
<g>
	<path class="st5" d="M35.45,114.42c0.65-1.37,1.94-1.08,3.17-1.12c0-0.33,0-0.61,0-0.9c0-6.56,0-13.12,0-19.68
		c0-4.26,1.99-6.97,6.07-8.27c0.07-0.02,0.14-0.07,0.27-0.13c0-1.03,0-2.08,0-3.13c0-3.74,0.09-7.49-0.02-11.22
		c-0.16-5.08,3.82-8.65,8.2-8.51c0.1,0,0.2-0.02,0.37-0.05c0-0.31,0-0.59,0-0.87c0-2.79-0.01-5.59,0-8.38
		c0.02-4.65,3.45-8.07,8.12-8.09c1.6-0.01,3.2,0,4.82,0c-0.99-3.53-0.35-5.9,1.99-7.51c2.29-1.58,4.75-1.34,7.61,0.75
		c1.23-1.14,2.67-1.82,4.4-1.77c1.22,0.04,2.33,0.42,3.31,1.15c2.24,1.66,2.85,4.1,1.8,7.39c1.65,0,3.27,0,4.89,0
		c1.74,0,3.34,0.46,4.74,1.5c2.11,1.55,3.24,3.66,3.29,6.27c0.05,2.9,0.01,5.8,0.02,8.7c0,0.28,0,0.57,0,0.83
		c0.88,0.11,1.7,0.14,2.48,0.33c3.56,0.85,6.04,3.95,6.06,7.63c0.03,4.72,0.01,9.43,0.01,14.15c0,0.29,0,0.57,0,0.77
		c0.89,0.4,1.76,0.68,2.51,1.14c2.52,1.57,3.81,3.89,3.82,6.85c0.02,6.67,0.01,13.33,0.01,20c0,0.32,0,0.63,0,1.05
		c1.17,0.08,2.51-0.28,3.17,1.13c0,0.69,0,1.37,0,2.06c-27.03,0-54.07,0-81.1,0C35.45,115.79,35.45,115.1,35.45,114.42z
		 M56.69,61.45c2.77,0,5.46,0,8.15,0c1.35,0,2.69-0.02,4.04,0.01c0.91,0.02,1.56,0.7,1.57,1.55c0.01,0.85-0.64,1.52-1.54,1.59
		c-0.24,0.02-0.47,0.01-0.71,0.01c-5.09,0-10.19-0.01-15.28,0.01c-2.71,0.01-4.75,2.06-4.79,4.75c-0.01,0.71,0.05,1.43-0.02,2.13
		c-0.06,0.62,0.21,0.96,0.68,1.29c3.36,2.38,7.94,2.12,11.03-0.65c1.15-1.03,1.76-1.04,2.87-0.04c3.42,3.08,8.46,3.08,11.89,0.01
		c1.13-1.01,1.74-1,2.87,0.01c3.38,3.04,8.43,3.05,11.83,0.02c1.18-1.05,1.75-1.05,2.93,0.01c2.97,2.67,7.35,2.99,10.71,0.85
		c0.72-0.46,1.11-0.96,0.98-1.84c-0.07-0.49-0.01-1-0.01-1.5c-0.01-3.05-2-5.04-5.06-5.05c-3.83-0.01-7.65,0-11.48,0
		c-1.4,0-2.8,0.01-4.2-0.01c-0.73-0.01-1.25-0.38-1.5-1.07c-0.23-0.64-0.09-1.26,0.44-1.63c0.38-0.27,0.91-0.42,1.38-0.43
		c3.67-0.03,7.34-0.02,11.01-0.02c0.28,0,0.55,0,0.86,0c0-3.1,0-6.07,0-9.05c0-3.22-1.95-5.18-5.16-5.18c-6.36,0-12.72,0-19.08,0
		c-3.22,0-6.44-0.02-9.66,0.01c-2.5,0.02-4.63,1.89-4.71,4.33C56.61,54.82,56.69,58.08,56.69,61.45z M76.01,87.38
		c-9.76,0-19.53,0-29.29,0c-2.89,0-4.92,2.04-4.93,4.93c-0.01,1.66,0.02,3.32-0.02,4.98c-0.01,0.52,0.18,0.82,0.57,1.11
		c3.18,2.41,7.75,2.25,10.74-0.4c1.28-1.13,1.78-1.13,3.05-0.01c3.18,2.82,8.04,2.83,11.22,0.01c1.28-1.13,1.78-1.14,3.05-0.02
		c3.18,2.82,8.04,2.82,11.22,0.01c1.28-1.13,1.78-1.13,3.05-0.01c3.18,2.82,8.05,2.82,11.22,0.01c1.28-1.13,1.78-1.14,3.04-0.01
		c3,2.67,7.64,2.84,10.78,0.35c0.28-0.22,0.49-0.68,0.5-1.03c0.05-1.58,0.02-3.16,0.02-4.74c0-3.25-1.95-5.19-5.23-5.19
		C95.33,87.38,85.67,87.38,76.01,87.38z M41.82,113.26c22.82,0,45.57,0,68.36,0c0-3.8,0-7.56,0-11.38
		c-0.18,0.07-0.33,0.12-0.47,0.18c-4.12,1.87-8.09,1.62-11.86-0.9c-0.45-0.3-0.69-0.13-1.03,0.1c-3.92,2.66-9.13,2.69-13.03,0.04
		c-0.49-0.33-0.8-0.36-1.3-0.01c-3.87,2.64-9.09,2.64-12.96,0.01c-0.49-0.33-0.8-0.35-1.3-0.01c-3.9,2.66-9.15,2.65-13.02-0.03
		c-0.49-0.34-0.78-0.28-1.24,0.03c-2.19,1.48-4.64,2.21-7.26,1.91c-1.65-0.19-3.26-0.71-4.88-1.08
		C41.82,105.69,41.82,109.44,41.82,113.26z M48.14,84.17c18.62,0,37.15,0,55.71,0c0-2.68,0-5.3,0-7.99
		c-0.23,0.09-0.42,0.17-0.61,0.25c-4.19,1.83-8.21,1.53-12.02-1.04c-0.47-0.31-0.72-0.17-1.09,0.08c-4.07,2.8-9.49,2.8-13.53,0
		c-0.47-0.33-0.76-0.31-1.22,0.01c-4.06,2.8-9.47,2.79-13.53-0.02c-0.43-0.3-0.7-0.33-1.16-0.01c-2.54,1.74-5.35,2.48-8.4,1.99
		c-1.41-0.23-2.77-0.72-4.15-1.1C48.14,78.86,48.14,81.49,48.14,84.17z M74.42,41.38c0-1.5-1.21-2.71-2.71-2.69
		c-1.45,0.02-2.66,1.23-2.66,2.68c-0.01,1.48,1.24,2.71,2.72,2.7C73.23,44.05,74.41,42.85,74.42,41.38z M82.97,41.38
		c0-1.46-1.19-2.67-2.64-2.69c-1.49-0.02-2.73,1.2-2.73,2.68c0,1.49,1.24,2.71,2.72,2.69C81.77,44.04,82.97,42.83,82.97,41.38z"/>
	<path class="st5" d="M77.58,63.07c-0.02,0.87-0.79,1.58-1.66,1.54c-0.84-0.04-1.52-0.77-1.5-1.61c0.02-0.87,0.79-1.58,1.65-1.54
		C76.92,61.5,77.6,62.24,77.58,63.07z"/>
</g>
</svg>
