<?xml version="1.0" encoding="utf-8"?>
<!-- Generator: Adobe Illustrator 23.1.0, SVG Export Plug-In . SVG Version: 6.00 Build 0)  -->
<svg version="1.1" id="Layer_1" xmlns="http://www.w3.org/2000/svg" xmlns:xlink="http://www.w3.org/1999/xlink" x="0px" y="0px"
	 viewBox="0 0 152 152" style="enable-background:new 0 0 152 152;" xml:space="preserve">
<style type="text/css">
	.st0{opacity:0.53;fill:#CCCCCC;stroke:#8C6239;stroke-width:5;stroke-miterlimit:10;}
	.st1{opacity:0.53;fill:#CCCCCC;}
	.st2{opacity:0.53;fill:#E6E6E6;stroke:#8C6239;stroke-width:5;stroke-miterlimit:10;}
	.st3{opacity:0.53;clip-path:url(#SVGID_4_);fill:url(#SVGID_5_);}
	.st4{fill:#713D1B;}
	.st5{fill:#8C6239;}
	.st6{fill:#333333;}
</style>
<g>
	<path class="st5" d="M79.33,30.01c1.61,0.3,3.24,0.51,4.83,0.91c16.21,4.09,26.93,14.08,31.3,30.24
		c2.99,11.04,0.89,21.54-5.37,31.15c-0.14,0.22-0.27,0.45-0.43,0.71c1.74,0.46,3.42,0.85,5.08,1.35c2.35,0.72,4.45,1.84,5.58,4.17
		c0.44,0.9,0.78,1.89,0.94,2.88c0.47,2.88,0.49,5.78-0.11,8.66c-0.41,1.97-1.49,3.56-3.28,4.37c-5.23,2.36-10.46,4.74-15.82,6.76
		c-3.55,1.34-7.29,0.69-10.87-0.36c-2.41-0.7-4.77-1.58-7.12-2.45c-2.27-0.84-3.78-2.37-4.02-4.91c-0.01-0.11-0.06-0.22-0.08-0.31
		c-1.95,0.27-3.86,0.6-5.78,0.78c-6.16,0.59-12.14-0.33-17.87-2.6c-13.5-5.36-21.8-15.32-24.86-29.41
		c-2.9-13.34,0.17-25.44,8.89-35.97c6.72-8.12,15.31-13.26,25.68-15.35c1.19-0.24,2.4-0.43,3.6-0.64
		C72.86,30.01,76.09,30.01,79.33,30.01z M104.64,92.03c0.95,0.2,1.79,0.41,2.65,0.53c0.21,0.03,0.55-0.15,0.68-0.34
		c5.69-8.11,7.88-17.13,6.53-26.91c-1.38-9.96-6.2-18.15-13.96-24.45c-10.61-8.61-22.78-11.04-35.99-8.01
		c-9.59,2.2-17.37,7.44-23.5,15.1c-4.87,6.08-7.78,13.02-8.6,20.78c-0.63,5.95,0.04,11.78,1.97,17.44
		c2.75,8.03,7.48,14.62,14.58,19.38c7.85,5.26,16.5,7.48,25.91,6.59c1.65-0.16,3.28-0.54,4.92-0.83c-0.08-1.06-0.15-1.94-0.22-2.75
		c-2,0.21-3.9,0.52-5.8,0.57c-1.94,0.06-3.9,0-5.82-0.23c-7.14-0.84-13.61-3.46-18.96-8.27c-9.98-8.97-14.13-20.25-12.08-33.53
		c1.52-9.86,6.36-18.07,14.48-23.88c12.94-9.26,26.85-10.58,41.16-3.38c8.65,4.35,13.87,11.66,16.21,21
		c1.68,6.7,1.37,13.42-0.1,20.12C107.87,84.79,106.5,88.42,104.64,92.03z M74.17,97.35c4.94-4.25,9.78-8.4,14.65-12.58
		c-4.03-3.96-8.01-7.88-12.03-11.84c-4.7,4.01-9.5,8.1-14.38,12.27C66.35,89.28,70.24,93.29,74.17,97.35z M61.17,83.89
		c4.89-4.17,9.66-8.25,14.5-12.38c-3.84-3.94-7.61-7.8-11.44-11.73c-4.63,4.15-9.2,8.26-13.83,12.41
		C54.02,76.12,57.56,79.97,61.17,83.89z M90.42,59.02c-3.9-4.13-7.74-8.2-11.61-12.31c-4.49,4.02-8.83,7.92-13.24,11.87
		c3.85,3.95,7.65,7.84,11.48,11.76C81.52,66.56,85.92,62.83,90.42,59.02z M103.64,72.68c-4.07-4.06-8.1-8.09-12.19-12.17
		c-4.33,3.66-8.71,7.37-13.13,11.11c4.04,3.98,8.02,7.91,12.04,11.87C94.75,79.92,99.25,76.26,103.64,72.68z M49.22,70.83
		c4.6-4.13,9.16-8.21,13.76-12.33c-4.1-4.26-8.15-8.46-12.17-12.64c-0.13,0.05-0.19,0.05-0.23,0.09c-4.36,4.13-7.81,8.89-9.97,14.52
		c-0.08,0.2,0.02,0.58,0.17,0.76c0.96,1.14,1.97,2.26,2.96,3.38C45.55,66.67,47.37,68.73,49.22,70.83z M77.46,45.51
		c-0.22-0.15-0.41-0.25-0.56-0.39c-2.45-2.37-4.88-4.76-7.35-7.12c-0.22-0.21-0.7-0.28-1.03-0.23c-3.68,0.61-7.22,1.7-10.54,3.43
		c-1.97,1.03-3.86,2.23-5.87,3.4c4.16,4.32,8.16,8.48,12.21,12.68C68.69,53.37,73.01,49.5,77.46,45.51z M61.04,86.37
		c-4.3,3.71-8.56,7.37-12.81,11.04c3.48,3.78,8.96,7.01,14.39,8.62c1.05,0.31,1.76,0.21,2.59-0.57c2.47-2.34,5.05-4.58,7.63-6.9
		C68.9,94.5,65.01,90.48,61.04,86.37z M49.08,73.37c-3.17,2.84-6.25,5.59-9.3,8.37c-0.17,0.16-0.23,0.58-0.17,0.84
		c1.1,3.96,2.86,7.61,5.27,10.93c0.64,0.89,1.36,1.71,2.08,2.61c4.33-3.73,8.57-7.38,12.86-11.07
		C56.22,81.14,52.68,77.29,49.08,73.37z M116.8,97.13c-0.92-0.38-1.58-0.75-2.3-0.93c-4.36-1.06-8.72-2.1-13.09-3.07
		c-0.81-0.18-1.76-0.12-2.56,0.12c-4.62,1.35-9.21,2.79-13.8,4.21c-0.41,0.13-0.78,0.35-1.22,0.55c1.38,0.4,2.66,0.71,3.9,1.14
		c3.28,1.14,6.23,2.92,9.04,4.91c1.49,1.05,2.93,1.22,4.54,0.48c3.64-1.68,7.28-3.34,10.9-5.04C113.69,98.8,115.12,98,116.8,97.13z
		 M80.15,45.51c3.9,4.14,7.77,8.24,11.65,12.36c3.27-2.75,6.5-5.46,9.71-8.16c-0.06-0.15-0.08-0.25-0.13-0.31
		c-3.68-4.71-8.45-7.88-14.03-9.89c-0.17-0.06-0.48,0-0.62,0.12C84.52,41.58,82.32,43.56,80.15,45.51z M105.09,71.56
		c0.97-0.76,1.68-1.37,2.44-1.9c0.52-0.37,0.7-0.78,0.67-1.42c-0.14-3.6-1.01-7.04-2.19-10.41c-0.82-2.35-1.94-4.56-3.38-6.7
		c-3.24,2.72-6.44,5.41-9.8,8.23C96.96,63.46,101,67.49,105.09,71.56z M91.49,84.95c2.19,1.82,4.31,3.58,6.42,5.35
		c0.79,0.66,1.58,1.22,2.74,0.91c0.42-0.11,0.96,0.05,1.4,0.2c0.62,0.22,0.89,0.01,1.17-0.54c2.01-3.98,3.4-8.16,4.17-12.55
		c0.45-2.59,0.45-2.56-1.53-4.11c-0.52-0.41-0.82-0.35-1.29,0.04c-3.91,3.21-7.84,6.39-11.77,9.58C92.4,84.17,92,84.52,91.49,84.95z
		 M81.74,111.94c-0.18,2.35,0.62,3.81,2.67,4.63c2.14,0.85,4.3,1.66,6.49,2.36c4.95,1.59,9.79,1.52,14.58-0.8
		c3.6-1.75,7.33-3.24,10.97-4.9c2.17-0.99,3.13-2.83,3.31-5.26c-0.4,0.19-0.72,0.33-1.03,0.48c-4.84,2.35-9.64,4.79-14.54,7.03
		c-3.42,1.57-7.04,2.23-10.74,0.91c-3.57-1.28-7.1-2.66-10.65-4C82.46,112.26,82.12,112.1,81.74,111.94z M79.24,102.26
		c-0.24-3.68,1.95-5.35,4.88-6.36c3.36-1.16,6.75-2.23,10.14-3.32c0.83-0.27,1.69-0.47,2.59-0.73c-2.31-1.97-4.51-3.85-6.78-5.79
		c-4.85,4.16-9.71,8.33-14.51,12.45C76.78,99.75,77.92,100.92,79.24,102.26z M38.97,80.03c3.03-2.72,5.96-5.35,8.91-7.99
		c-2.71-3.07-5.36-6.09-8.11-9.22C38.05,68.55,37.73,74.15,38.97,80.03z M81.4,100.28c2.46,1.07,4.86,2.04,7.2,3.15
		c2.62,1.24,5.15,2.68,7.78,3.89c2.92,1.34,5.91,1.39,8.83-0.12c2.61-1.34,5.23-2.65,7.81-4.05c1.99-1.08,3.93-2.26,5.95-3.44
		c-0.3-0.47-0.54-0.85-0.79-1.23c-3.67,1.85-7.21,3.72-10.83,5.44c-2.16,1.02-4.41,1.85-6.65,2.68c-1.43,0.53-2.81,0.27-4.11-0.56
		c-1.76-1.14-3.52-2.28-5.34-3.32c-2.73-1.54-5.62-2.65-8.78-2.97C81.83,99.69,81.42,99.82,81.4,100.28z M66.27,106.87
		c4.23,0.75,8.22,0.65,12.21-0.01c1.05-0.17,1.44-1.19,0.7-1.98c-1.61-1.72-3.3-3.37-5-5.1C71.51,102.17,68.96,104.45,66.27,106.87z
		 M85.02,38.72c-4.5-1.42-8.94-1.77-13.44-1.35c-0.05,0.09-0.1,0.17-0.15,0.26c2.41,2.24,4.83,4.49,7.27,6.76
		C80.85,42.47,82.88,40.64,85.02,38.72z M107.66,108c-3.24,1.84-6.59,2.75-10.23,1.59c-0.51,1.44-0.32,3.69,0.38,4.85
		c0.36,0.6,0.78,0.84,1.55,0.69c3.17-0.64,6.03-2.06,8.88-3.49c0.17-0.08,0.32-0.35,0.35-0.55
		C108.72,109.98,108.5,108.96,107.66,108z M88.92,105.58c-2.57-1.23-4.96-2.64-7.9-3.23c0.19,2.41,0.37,4.66,0.56,7.1
		C84.4,108.67,87.19,108.29,88.92,105.58z M90.48,106.49c-0.31,0.46-0.62,0.91-0.91,1.34c1.1,1.31,1.44,2.77,1.53,4.33
		c0.1,1.7,0.13,1.71,1.82,2.2c1.01,0.29,2.03,0.54,3.21,0.85c-0.74-2.01-0.99-3.82-0.65-5.7c0.04-0.23-0.24-0.64-0.48-0.77
		C93.55,107.98,92.06,107.27,90.48,106.49z M109.51,107.1c0.38,1.15,0.73,2.22,1.11,3.35c2.2-1.09,4.49-2.23,6.68-3.31
		c-1.19-0.71-2.38-1.42-3.72-2.23C112.34,105.57,110.88,106.36,109.51,107.1z M88.26,109.07c-1.55,0.62-2.97,1.19-4.56,1.83
		c1.9,0.79,3.66,1.54,5.57,2.34C89.35,111.6,89.2,110.23,88.26,109.07z M115.46,103.86c1.25,1.32,2.79,1.46,4.45,1.66
		c-0.13-1.36-0.25-2.62-0.38-4.03C118.1,102.32,116.82,103.06,115.46,103.86z M108.1,71.48c-0.58,0.46-0.96,0.76-1.41,1.13
		c0.46,0.35,0.82,0.62,1.32,1C108.04,72.83,108.07,72.26,108.1,71.48z"/>
</g>
</svg>
