<?xml version="1.0" encoding="utf-8"?>
<!-- Generator: Adobe Illustrator 23.1.0, SVG Export Plug-In . SVG Version: 6.00 Build 0)  -->
<svg version="1.1" id="Calque_1" xmlns="http://www.w3.org/2000/svg" xmlns:xlink="http://www.w3.org/1999/xlink" x="0px" y="0px"
	 viewBox="0 0 390 390" style="enable-background:new 0 0 390 390;" xml:space="preserve">
<style type="text/css">
	.st0{fill:#713D1B;}
	.st1{fill:#F0FAF7;}
</style>
<g>
	<path class="st0" d="M195,0C87.3,0,0,87.3,0,195s87.3,195,195,195c107.7,0,195-87.3,195-195S302.7,0,195,0z M195,345
		c-82.9,0-150-67.1-150-150c0-82.9,67.1-150,150-150s150,67.1,150,150C345,277.9,277.9,345,195,345z"/>
</g>
<g>
	<path class="st1" d="M195,3C88.9,3,3,88.9,3,195s85.9,192,192,192c106.1,0,192-85.9,192-192S301.1,3,195,3z M195,345
		c-82.9,0-150-67.1-150-150c0-82.9,67.1-150,150-150s150,67.1,150,150C345,277.9,277.9,345,195,345z"/>
</g>
<g>
	<path class="st0" d="M195,43c-84,0-152,68-152,152s68,152,152,152c84,0,152-68,152-152S279,43,195,43z M195,345
		c-82.9,0-150-67.1-150-150c0-82.9,67.1-150,150-150s150,67.1,150,150C345,277.9,277.9,345,195,345z"/>
</g>
<g>
	<path class="st0" d="M137.4,56.4C155.1,49.1,174.6,45,195,45s39.7,4,57.4,11.4l16.8-40.5C246.5,6.5,221.1,1,195,1
		c-26.1,0-51.8,5.4-74.4,14.9L137.4,56.4z"/>
</g>
</svg>
